<svg width="18" height="16" viewBox="0 0 18 16" fill="none" xmlns="http://www.w3.org/2000/svg">
<path d="M17.9721 2.30545C18.0555 2.19 17.9374 2.03663 17.8083 2.08701C17.4411 2.23026 17.0641 2.34374 16.6806 2.42648C16.5353 2.45784 16.4547 2.24104 16.5675 2.13961C17.015 1.73719 17.3699 1.23096 17.6033 0.659356C17.6533 0.53676 17.5257 0.425986 17.4138 0.488636C16.772 0.847931 16.0837 1.10861 15.3712 1.26456C15.3247 1.27475 15.2767 1.25819 15.2436 1.22232C14.6729 0.604681 13.929 0.194892 13.1202 0.0540959C12.2862 -0.0910793 11.4301 0.0578671 10.6849 0.477779C9.93964 0.897691 9.34706 1.56504 8.99926 2.37608C8.6766 3.1285 8.58138 3.96548 8.72398 4.77415C8.74069 4.86892 8.67039 4.95778 8.57903 4.95135C7.11759 4.84844 5.69023 4.43611 4.38266 3.73833C3.07988 3.0431 1.92388 2.07938 0.982971 0.905143C0.920958 0.827752 0.80446 0.837457 0.760461 0.927489C0.481795 1.4977 0.336164 2.13076 0.337028 2.77403C0.337028 3.99245 0.850443 5.08727 1.66139 5.82803C1.7658 5.9234 1.70159 6.10979 1.56506 6.08702C1.13968 6.01608 0.727669 5.86979 0.346869 5.65334C0.328408 5.64284 0.30585 5.65683 0.30585 5.67891C0.305822 6.61137 0.612164 7.51512 1.17292 8.23691C1.61026 8.79983 2.18135 9.22504 2.82338 9.47267C2.95961 9.52521 2.95603 9.7368 2.81189 9.75419C2.50192 9.79159 2.18834 9.7893 1.87807 9.74704C1.77451 9.73294 1.68887 9.83594 1.72673 9.93839C1.98786 10.645 2.4333 11.2617 3.01379 11.7159C3.5527 12.1377 4.18537 12.4017 4.8477 12.4851C4.97617 12.5013 5.02891 12.6774 4.92328 12.7561C4.20411 13.2916 3.40214 13.6937 2.55199 13.9441C1.7704 14.1742 0.960389 14.2724 0.152022 14.2363C0.00607491 14.2298 -0.0594237 14.4356 0.0676171 14.5115C1.70025 15.4871 3.54876 16.0018 5.43288 16C12.4884 16 16.3454 9.84751 16.3454 4.51175C16.3454 4.36408 16.3427 4.21502 16.3374 4.06752C16.3357 4.0188 16.357 3.97233 16.3943 3.94339C16.9922 3.47914 17.5233 2.92711 17.9721 2.30545Z" fill="#FBF9F7"/>
</svg>
