<svg width="18" height="12" viewBox="0 0 18 12" fill="none" xmlns="http://www.w3.org/2000/svg">
<path d="M17.55 1.82143C17.325 1.07143 16.7625 0.535714 15.975 0.321429C14.625 1.91586e-07 8.88749 0 8.88749 0C8.88749 0 3.26251 1.91586e-07 1.80001 0.321429C1.01251 0.535714 0.449997 1.07143 0.224997 1.82143C-3.43658e-06 3.21429 0 6 0 6C0 6 3.41982e-06 8.78571 0.337503 10.1786C0.562503 10.9286 1.125 11.4643 1.9125 11.6786C3.2625 12 9 12 9 12C9 12 14.625 12 16.0875 11.6786C16.875 11.4643 17.4375 10.9286 17.6625 10.1786C18 8.78571 18 6 18 6C18 6 18 3.21429 17.55 1.82143ZM7.19999 8.57143V3.42857L11.925 6L7.19999 8.57143Z" fill="#FBF9F7"/>
</svg>
