<svg width="147" height="54" viewBox="0 0 147 54" fill="none" xmlns="http://www.w3.org/2000/svg">
<path d="M39.0688 24.3441C39.0485 24.7122 38.9631 25.0624 38.8243 25.3834L38.7402 25.5617L38.5237 26.0215L38.3288 26.4367L34.9334 33.6505L34.913 33.6938L34.9092 33.7027C34.8659 33.8033 34.8404 33.9129 34.834 34.0275C34.8328 34.0453 34.8328 34.0631 34.8328 34.081V38.1642C34.8328 38.2062 34.8315 38.2482 34.8289 38.2903C34.8226 38.4138 34.806 38.5361 34.7806 38.6532C34.6188 39.4059 34.0915 40.0198 33.3974 40.3217C33.0599 40.4681 32.6816 40.5407 32.2868 40.5204C31.9697 40.5038 31.6704 40.4274 31.3991 40.3039C30.7929 40.03 30.3267 39.5168 30.1165 38.8978C30.049 38.6966 30.0096 38.4851 29.9994 38.2648V33.8975C29.9994 33.7574 30.0032 33.616 30.0109 33.4734C30.0249 33.2085 30.0528 32.9474 30.0936 32.6901C30.2006 31.9998 30.3993 31.3414 30.6769 30.725L30.7877 30.4906L32.5084 26.8327C32.5555 26.7359 32.5836 26.6277 32.5899 26.5131C32.6141 26.0699 32.2881 25.6878 31.8474 25.6215L31.8041 25.6165H31.8028L31.5341 25.5834L14.8713 23.4895L11.4555 23.0615L11.4172 23.0565C9.85324 22.8527 8.64836 21.6185 8.4968 20.1067C8.45095 19.6342 8.42804 19.1541 8.42804 18.6701C8.42804 10.24 15.3744 3.40576 23.9433 3.40576C31.0934 3.40576 37.1138 8.16527 38.9096 14.6404C38.9479 14.7754 38.9835 14.9116 39.0166 15.0479C39.0408 15.1829 39.0523 15.323 39.0523 15.4657C39.0523 16.8323 37.9264 17.9403 36.5369 17.9403C35.3715 17.9403 34.3896 17.1596 34.1055 16.0999C34.0979 16.0706 34.0903 16.0413 34.0826 16.0133C32.9453 11.5684 28.8544 8.27738 23.984 8.27738C18.7596 8.27738 14.4332 12.0625 13.6843 16.9991C13.6792 17.0297 13.6754 17.059 13.6703 17.0883C13.6677 17.1086 13.6652 17.1277 13.6626 17.1481C13.6601 17.1672 13.6588 17.1864 13.6575 17.2055C13.6282 17.7582 14.0052 18.2409 14.5325 18.3784L14.842 18.4167L14.9528 18.4319L34.1323 20.8404L36.2974 21.1116L36.3254 21.1155C37.4666 21.2632 38.404 21.9994 38.8281 22.9865C39.0064 23.4017 39.0943 23.864 39.0688 24.3441Z" fill="#FBF9F7"/>
<path d="M24.9299 0.524716C24.9261 0.607501 24.8522 0.672455 24.7669 0.667361C24.4727 0.654625 24.1746 0.649559 23.8766 0.649559C12.3618 0.649559 3.02613 9.83496 3.02613 21.1651C3.02613 29.748 8.38045 37.0993 15.9827 40.1611C16.04 40.1853 16.0795 40.2426 16.0744 40.3076C16.0706 40.3904 15.9967 40.4553 15.9114 40.4502C15.9063 40.4502 15.9024 40.449 15.8973 40.449C15.8897 40.4464 15.8795 40.4452 15.8719 40.4426C15.8706 40.4426 15.8693 40.4413 15.8668 40.4413C6.75785 38.2443 0 30.1569 0 20.5155C0 9.1854 9.33565 0 20.8505 0C22.2005 0 23.52 0.12609 24.7987 0.368079C24.8738 0.378267 24.9299 0.449572 24.9299 0.524716Z" fill="#FBF9F7"/>
<path d="M20.6264 45.9017C20.0036 45.9017 19.4177 45.5234 19.1923 44.9134C18.9031 44.1339 19.312 43.2716 20.1042 42.9889L27.1817 40.4544C27.9739 40.1704 28.8501 40.5729 29.138 41.3511C29.4271 42.1305 29.0183 42.9927 28.2261 43.2767L21.1473 45.8112C20.9753 45.8736 20.7996 45.9017 20.6264 45.9017Z" fill="#FBF9F7"/>
<path d="M24.2939 53.9999C23.6698 53.9999 23.0852 53.6216 22.8585 53.0116C22.5707 52.2321 22.9795 51.3699 23.7717 51.0872L30.8492 48.5527C31.6414 48.2686 32.5177 48.6698 32.8055 49.4493C33.0946 50.2287 32.6858 51.091 31.8936 51.375L24.8148 53.9095C24.6429 53.9706 24.4671 53.9999 24.2939 53.9999Z" fill="#FBF9F7"/>
<path d="M21.4124 50.3211C20.7896 50.3211 20.2037 49.9415 19.9783 49.3327C19.6892 48.5533 20.098 47.691 20.8902 47.4083L31.6548 43.553C32.447 43.269 33.322 43.6715 33.6111 44.4509C33.899 45.2291 33.4901 46.0913 32.6979 46.3753L21.9346 50.2306C21.7614 50.2918 21.5856 50.3211 21.4124 50.3211Z" fill="#FBF9F7"/>
<path d="M43.5422 8.7728C43.5422 7.13111 44.0605 5.74417 45.096 4.61192C46.0754 3.53571 47.3159 2.91286 48.8162 2.74347C49.0646 2.71799 49.3129 2.70654 49.5626 2.70654C51.0553 2.70654 52.3594 3.1918 53.4751 4.1623C53.6267 4.29221 53.7719 4.42853 53.9082 4.575C54.2049 4.89086 54.2851 5.25886 54.1501 5.67916C54.061 5.9377 53.9082 6.14022 53.6917 6.28542H53.6802C53.3185 6.51976 52.9491 6.53635 52.5722 6.33385C52.4435 6.26125 52.3352 6.1759 52.2474 6.07911C51.5494 5.278 50.6541 4.87685 49.5626 4.87685C48.415 4.87685 47.4713 5.27289 46.7326 6.06636C46.0499 6.81143 45.7099 7.71315 45.7099 8.7728C45.7099 9.88085 46.0818 10.8068 46.8294 11.5506C47.5681 12.2702 48.4622 12.6306 49.5142 12.6306C50.7178 12.6306 51.6806 12.1543 52.4028 11.1991C52.66 10.8679 52.9976 10.7304 53.414 10.7864C53.5516 10.8029 53.6789 10.8437 53.7986 10.9087C53.8878 10.9494 53.9655 11.0042 54.0343 11.0717C54.1018 11.1405 54.1604 11.2143 54.2088 11.2907C54.2572 11.3672 54.2966 11.45 54.3285 11.5391C54.3616 11.6283 54.3794 11.72 54.3832 11.813C54.3871 11.9059 54.3832 11.9964 54.3718 12.0855C54.359 12.1747 54.3335 12.2638 54.2928 12.3517C54.252 12.4408 54.2011 12.5261 54.1362 12.6077C53.2051 13.7552 52.0449 14.4634 50.6553 14.7309C50.2949 14.8035 49.9294 14.8404 49.56 14.8404C47.8585 14.8404 46.446 14.294 45.3227 13.2025C44.2872 12.1836 43.7014 10.9049 43.5651 9.36888C43.5498 9.16638 43.5422 8.96767 43.5422 8.7728Z" fill="#FBF9F7"/>
<path d="M57.3375 2.71973C57.7221 2.71973 58.0112 2.88532 58.2035 3.21646C58.3003 3.38585 58.3487 3.5603 58.3487 3.73861V13.8219C58.3487 14.2103 58.1844 14.502 57.8558 14.6956C57.6941 14.7924 57.5221 14.8421 57.3375 14.8421C56.9605 14.8421 56.6714 14.6765 56.4701 14.3441C56.3823 14.1823 56.3377 14.0078 56.3377 13.8219V3.73861C56.3377 3.35015 56.502 3.05853 56.8318 2.86494C56.991 2.77578 57.1604 2.72737 57.3375 2.71973Z" fill="#FBF9F7"/>
<path d="M67.0787 14.6342C66.9017 14.6342 66.7896 14.5539 66.7412 14.3922C66.7247 14.3514 66.717 14.3107 66.717 14.27V13.8942C66.717 13.814 66.6763 13.7732 66.596 13.7732C66.5553 13.7643 66.5196 13.7771 66.4878 13.8102C65.8459 14.489 65.0065 14.8329 63.9711 14.8406C62.5421 14.8406 61.5105 14.3031 60.8775 13.2268C60.4839 12.5467 60.2878 11.71 60.2878 10.7153V6.10478C60.2878 5.69212 60.4636 5.37624 60.8176 5.15718C60.9934 5.05274 61.1857 4.99671 61.3946 4.98779H61.4188C61.8365 4.98779 62.1536 5.16608 62.3702 5.52269C62.4746 5.70864 62.5268 5.90227 62.5268 6.10478V10.4847C62.5268 11.8195 63.0044 12.6041 63.9596 12.8384C64.1519 12.8881 64.357 12.911 64.5735 12.911C65.3848 12.911 65.9783 12.5594 66.3553 11.8551C66.5884 11.4272 66.7056 10.9051 66.7056 10.2899V6.10478C66.7056 5.69212 66.8775 5.37624 67.2227 5.15718C67.4073 5.05274 67.5997 4.99671 67.8009 4.98779C68.2174 4.98779 68.5345 5.16608 68.7523 5.52269C68.8567 5.70864 68.9077 5.90227 68.9077 6.10478V12.79C68.9077 13.3962 68.6708 13.8853 68.1982 14.2585C67.8607 14.5094 67.4876 14.6342 67.0787 14.6342Z" fill="#FBF9F7"/>
<path d="M73.0882 13.7974C73.0882 14.1298 72.9429 14.3757 72.6551 14.5387C72.5265 14.6024 72.3889 14.6392 72.245 14.6469H71.7878C71.4503 14.6469 71.2044 14.4979 71.0529 14.1986C70.9816 14.0687 70.9446 13.9349 70.9446 13.7974V3.79949C70.9446 3.39448 71.1166 3.08754 71.4617 2.87739C71.6388 2.77168 71.8273 2.71565 72.0285 2.70801C72.4297 2.70801 72.7354 2.88122 72.943 3.22891C73.0474 3.40722 73.1009 3.59826 73.1009 3.79949V6.03339C73.1009 6.12127 73.1442 6.17095 73.2333 6.1786C73.2817 6.17095 73.3174 6.15437 73.3416 6.13017C74.023 5.43477 74.8903 5.06669 75.9423 5.02593C76.006 5.01829 76.071 5.0145 76.1347 5.0145C77.3064 5.0145 78.3215 5.40169 79.1812 6.1786C80.1924 7.16565 80.7095 8.42014 80.7337 9.94085C80.7337 11.4284 80.2408 12.6422 79.2525 13.5809C78.4335 14.3578 77.4745 14.7742 76.3754 14.8303C76.3041 14.8379 76.2302 14.8418 76.1588 14.8418C74.9948 14.8341 74.051 14.4546 73.3289 13.7019C73.2576 13.6293 73.1888 13.6293 73.1251 13.7019C73.0996 13.7324 73.0882 13.7656 73.0882 13.7974ZM78.6029 9.90268C78.6029 9.01369 78.2858 8.28136 77.6515 7.70696C77.1128 7.22171 76.4709 6.98731 75.7245 7.00259C74.9056 7.01915 74.2229 7.35541 73.6778 8.01005C73.2359 8.56025 73.0117 9.18311 73.0028 9.8785C73.0028 10.784 73.3123 11.5278 73.93 12.1112C74.4522 12.5888 75.0737 12.8307 75.7959 12.8396C76.583 12.8396 77.2478 12.5569 77.7891 11.9901C78.3316 11.4234 78.6029 10.728 78.6029 9.90268Z" fill="#FBF9F7"/>
<path d="M43.9476 30.2011L44.1514 30.0305C44.4813 29.772 44.8341 29.7274 45.2111 29.8981C45.3486 29.9541 45.4645 30.0305 45.5613 30.1285C46.1217 30.6864 46.7891 30.9653 47.5596 30.9653C48.2983 30.9653 48.8205 30.7017 49.1249 30.1757C49.2701 29.9337 49.3414 29.6714 49.3414 29.3873C49.3414 28.8779 48.9886 28.469 48.2817 28.1621C48.041 28.0564 47.58 27.8997 46.8973 27.6883C45.8695 27.3495 45.1435 27.0209 44.7181 26.7063C43.9629 26.1395 43.5821 25.3474 43.5744 24.3272C43.5744 23.3491 43.9552 22.5365 44.7181 21.8882C45.4645 21.2578 46.3789 20.9419 47.4628 20.9419C48.5632 20.9508 49.5095 21.2132 50.3055 21.7303C50.6418 21.9494 50.7984 22.2639 50.7742 22.6766C50.7424 23.0001 50.6023 23.2587 50.3527 23.4535C50.0241 23.7044 49.67 23.7451 49.293 23.5757C49.2051 23.5261 49.1287 23.4777 49.0638 23.4293C48.6307 23.0816 48.1009 22.9033 47.4743 22.8956C46.7037 22.8956 46.1981 23.1593 45.9574 23.684C45.8861 23.8534 45.8453 24.0407 45.8376 24.2432C45.8376 24.7042 46.1382 25.0761 46.7407 25.3588C46.933 25.4556 47.4297 25.6378 48.2333 25.9052C49.3656 26.2771 50.1718 26.6783 50.6532 27.1063C51.2964 27.6985 51.6174 28.4613 51.6174 29.4C51.6174 30.3794 51.2722 31.2162 50.5819 31.9116C49.8114 32.6809 48.8078 33.0681 47.5724 33.077C46.1828 33.0681 44.9754 32.6643 43.9476 31.8632C43.6267 31.6047 43.498 31.2736 43.563 30.8698C43.6101 30.5935 43.7375 30.3705 43.9476 30.2011Z" fill="#FBF9F7"/>
<path d="M53.9556 27.3016C54.1479 26.1056 54.7185 25.1173 55.6648 24.3404C56.6047 23.58 57.6682 23.2081 58.8552 23.2247C60.2116 23.2488 61.3439 23.7303 62.2507 24.669C62.3551 24.7734 62.4506 24.883 62.5398 24.9963C62.8034 25.3198 62.8569 25.6764 62.6952 26.0649C62.5831 26.3234 62.4022 26.5055 62.1539 26.61L62.117 26.6355C61.74 26.7972 61.3872 26.7399 61.0573 26.4648C60.9923 26.4087 60.9363 26.3527 60.8892 26.2954C60.3517 25.6242 59.6487 25.2892 58.7814 25.2892C57.979 25.2803 57.3014 25.5796 56.7474 26.1872C56.378 26.5985 56.1462 27.0723 56.0494 27.6072C55.8889 28.5128 56.0813 29.305 56.6276 29.9851C57.2046 30.6563 57.9267 31.0001 58.7941 31.0154C59.6767 31.0154 60.3835 30.6677 60.9134 29.9723C61.1694 29.6412 61.4954 29.4998 61.889 29.5482C61.9845 29.5635 62.0775 29.589 62.1653 29.6208L62.2023 29.645C62.564 29.7991 62.7678 30.0691 62.8162 30.4576C62.8569 30.7403 62.792 30.9951 62.6239 31.2218C61.7884 32.3222 60.665 32.9335 59.2526 33.0545C59.0832 33.071 58.9189 33.0787 58.7584 33.0787C57.4504 33.0787 56.3309 32.6342 55.3986 31.7452C54.5007 30.8868 53.9976 29.8309 53.8932 28.5777C53.8626 28.1548 53.883 27.7308 53.9556 27.3016Z" fill="#FBF9F7"/>
<path d="M65.7653 24.2434C66.1499 24.2434 66.439 24.4089 66.6313 24.7413C66.7281 24.9107 66.7765 25.0852 66.7765 25.2623V32.057C66.7765 32.4454 66.6122 32.7371 66.2836 32.932C66.1219 33.0288 65.9499 33.0772 65.7653 33.0772C65.3883 33.0772 65.0992 32.9116 64.8979 32.5804C64.8101 32.4174 64.7655 32.2442 64.7655 32.0583V25.2635C64.7655 24.875 64.9298 24.5834 65.2596 24.3898C65.4188 24.2994 65.5882 24.2523 65.7653 24.2434ZM64.8011 21.9508C64.8011 21.57 64.9616 21.2784 65.2826 21.0759C65.4507 20.9791 65.6277 20.9307 65.8124 20.9307C66.1894 20.9307 66.4785 21.0924 66.6797 21.4159C66.7765 21.5853 66.8249 21.7636 66.8249 21.9495C66.8249 22.3304 66.6631 22.6207 66.3435 22.8232C66.1754 22.92 65.9983 22.9697 65.8137 22.9697C65.4354 22.9697 65.1463 22.8079 64.9463 22.4844C64.8495 22.3138 64.8011 22.1367 64.8011 21.9508Z" fill="#FBF9F7"/>
<path d="M68.7266 28.0043C68.7597 26.6861 69.2246 25.5614 70.1238 24.6304C70.9987 23.7248 72.0699 23.2307 73.3384 23.1504C73.5142 23.1415 73.6912 23.1377 73.8682 23.1377C75.2323 23.195 76.3518 23.6917 77.228 24.6304C78.0865 25.5614 78.5157 26.7013 78.5157 28.0526V28.1494C78.5157 28.4563 78.3794 28.6754 78.1068 28.8041C78.0024 28.8538 77.898 28.8767 77.7935 28.8767H71.1236C70.9949 28.8767 70.9185 28.9429 70.8943 29.0715C70.8867 29.1199 70.8905 29.1607 70.9071 29.1925C71.1962 30.0662 71.7578 30.6521 72.5921 30.9527C72.9461 31.0737 73.3231 31.1335 73.7243 31.1335C74.6477 31.1259 75.3813 30.7973 75.9277 30.1503C76.1684 29.851 76.4855 29.7427 76.8791 29.823C76.9988 29.8472 77.1032 29.8879 77.1924 29.9439C77.5375 30.1388 77.7057 30.4331 77.698 30.8304C77.6891 31.0966 77.605 31.3284 77.4446 31.522C76.5046 32.5485 75.2654 33.0669 73.7243 33.0745C72.7373 33.0745 71.8559 32.8478 71.0815 32.3944C70.3072 31.9422 69.7149 31.3284 69.3061 30.5566C68.896 29.786 68.7037 28.934 68.7266 28.0043ZM71.2802 27.0337H75.9748C76.1124 27.0337 76.1926 26.9688 76.2168 26.8388C76.2168 26.7981 76.2117 26.7586 76.2041 26.7179C75.8513 25.755 75.1368 25.2176 74.0618 25.1029C73.9243 25.0876 73.7893 25.0788 73.6517 25.0788C72.7131 25.0788 71.9667 25.4315 71.4127 26.1346C71.2752 26.3129 71.1592 26.5039 71.0624 26.7051C70.9987 26.8351 71.0306 26.9356 71.1592 27.0082C71.2 27.0261 71.2395 27.0337 71.2802 27.0337Z" fill="#FBF9F7"/>
<path d="M81.9823 23.4305H82.1988C82.4153 23.4305 82.5605 23.5324 82.6331 23.7336C82.6484 23.7833 82.6573 23.8304 82.6573 23.8801V24.3042C82.6573 24.3857 82.6968 24.4214 82.777 24.4137C82.8101 24.4061 82.8331 24.3933 82.8496 24.3768C83.5476 23.6164 84.4391 23.233 85.5217 23.2241C87.0704 23.2241 88.1593 23.8036 88.7847 24.9588C89.1375 25.6147 89.3145 26.4107 89.3145 27.3494V31.9599C89.3145 32.3726 89.1426 32.6884 88.7974 32.9075C88.6127 33.0119 88.4204 33.068 88.2192 33.0769H88.1835C87.7734 33.0769 87.4614 32.8986 87.2436 32.542C87.1315 32.356 87.0755 32.1624 87.0755 31.9599V27.58C87.0755 26.3675 86.6424 25.6071 85.7764 25.2989C85.5191 25.2021 85.2338 25.1537 84.9205 25.1537C84.1105 25.1537 83.5004 25.4848 83.0916 26.1484C82.819 26.5942 82.6777 27.1354 82.67 27.7748V31.9612C82.67 32.3739 82.4968 32.6897 82.1517 32.9075C81.9683 33.0132 81.7747 33.0692 81.5747 33.0769C81.1659 33.0769 80.8526 32.8998 80.6361 32.5432C80.5227 32.3573 80.4667 32.1637 80.4667 31.9612V24.9601C80.4667 24.4265 80.6844 24.01 81.1175 23.7107C81.3798 23.5234 81.669 23.4305 81.9823 23.4305Z" fill="#FBF9F7"/>
<path d="M92.3227 23.5521H92.7685C92.8818 23.5203 92.9455 23.4554 92.9608 23.3586V22.5218C92.9697 22.2377 93.0856 22.0162 93.311 21.8532L94.5146 21.0291C94.6904 20.9068 94.8598 20.9196 95.0202 21.0648C95.1081 21.1539 95.1565 21.2596 95.1641 21.3806V23.3586C95.1641 23.463 95.2138 23.5242 95.3093 23.5407C95.3259 23.5407 95.3424 23.5445 95.3577 23.5521H96.1041C96.4811 23.5521 96.7663 23.7151 96.9587 24.0374C97.0389 24.1915 97.0835 24.3571 97.0911 24.5354C97.0911 24.9073 96.9268 25.1901 96.5982 25.3849C96.4454 25.4728 96.2811 25.5174 96.1053 25.5174H95.3577C95.2456 25.5429 95.182 25.6065 95.1654 25.7122V29.0861C95.1654 29.8783 95.2622 30.3877 95.4545 30.6144C95.5666 30.7519 95.7233 30.8487 95.9232 30.9048C96.4123 31.0423 96.7587 31.3544 96.9587 31.8396C97.0389 32.0409 97.0835 32.2523 97.0911 32.4701V33.0763H96.7791C95.3577 33.0763 94.3745 32.8114 93.8281 32.2816C93.283 31.7517 92.9939 30.7914 92.9608 29.4006C92.9608 29.2949 92.9608 29.1943 92.9608 29.0963V25.7109C92.9366 25.6065 92.8729 25.5416 92.7685 25.5174H92.3227C91.9533 25.5174 91.6731 25.3556 91.4808 25.0321C91.3917 24.8703 91.3471 24.7048 91.3471 24.5354C91.3471 24.1546 91.5076 23.8705 91.8285 23.6859C91.9903 23.5967 92.1546 23.5521 92.3227 23.5521Z" fill="#FBF9F7"/>
<path d="M100.137 24.2434C100.522 24.2434 100.812 24.4089 101.005 24.7413C101.1 24.9107 101.148 25.0852 101.148 25.2623V32.057C101.148 32.4454 100.985 32.7371 100.656 32.932C100.495 33.0288 100.322 33.0772 100.138 33.0772C99.7602 33.0772 99.4711 32.9116 99.2711 32.5804C99.182 32.4174 99.1387 32.2442 99.1387 32.0583V25.2635C99.1387 24.875 99.303 24.5834 99.6316 24.3898C99.7921 24.2994 99.9614 24.2523 100.137 24.2434ZM99.1744 21.9508C99.1744 21.57 99.3348 21.2784 99.6558 21.0759C99.8239 20.9791 100.001 20.9307 100.186 20.9307C100.563 20.9307 100.852 21.0924 101.053 21.4159C101.148 21.5853 101.198 21.7636 101.198 21.9495C101.198 22.3304 101.036 22.6207 100.717 22.8232C100.549 22.92 100.372 22.9697 100.187 22.9697C99.8086 22.9697 99.5195 22.8079 99.3195 22.4844C99.2227 22.3138 99.1744 22.1367 99.1744 21.9508Z" fill="#FBF9F7"/>
<path d="M103.089 25.0814C103.089 24.7261 103.246 24.4638 103.558 24.2931C103.695 24.2281 103.835 24.1962 103.979 24.1962H104.546V24.1708C104.546 22.7405 104.915 21.7649 105.653 21.2466C106.214 20.8594 107.045 20.6646 108.145 20.6646H108.313V21.9993C108.313 22.2425 108.205 22.4081 107.989 22.4972C107.933 22.5138 107.877 22.5253 107.821 22.5342C107.227 22.5749 106.853 22.7597 106.701 23.0921C106.613 23.2946 106.565 23.5849 106.556 23.9658C106.556 24.0957 106.616 24.1683 106.737 24.1848C106.753 24.1925 106.765 24.1962 106.772 24.1962H107.423C107.777 24.1962 108.037 24.3504 108.206 24.6586C108.278 24.7962 108.315 24.9375 108.315 25.0827C108.315 25.4394 108.158 25.7017 107.846 25.8711C107.717 25.9437 107.576 25.9806 107.424 25.9806H106.774C106.645 26.0048 106.574 26.0774 106.557 26.1984V32.0596C106.557 32.448 106.393 32.7398 106.063 32.9333C105.895 33.0301 105.722 33.0798 105.546 33.0798C105.168 33.0798 104.88 32.9142 104.678 32.5818C104.591 32.4201 104.546 32.2456 104.546 32.0609V26.1996C104.522 26.0786 104.449 26.0061 104.33 25.9806H103.979C103.626 25.9806 103.365 25.8227 103.197 25.5081C103.125 25.3769 103.089 25.2355 103.089 25.0814Z" fill="#FBF9F7"/>
<path d="M111.43 24.2434C111.815 24.2434 112.105 24.4089 112.298 24.7413C112.394 24.9107 112.443 25.0852 112.443 25.2623V32.057C112.443 32.4454 112.279 32.7371 111.949 32.932C111.788 33.0288 111.616 33.0772 111.432 33.0772C111.053 33.0772 110.764 32.9116 110.564 32.5804C110.476 32.4174 110.432 32.2442 110.432 32.0583V25.2635C110.432 24.875 110.596 24.5834 110.925 24.3898C111.085 24.2994 111.253 24.2523 111.43 24.2434ZM110.467 21.9508C110.467 21.57 110.627 21.2784 110.949 21.0759C111.117 20.9791 111.294 20.9307 111.479 20.9307C111.856 20.9307 112.145 21.0924 112.345 21.4159C112.442 21.5853 112.49 21.7636 112.49 21.9495C112.49 22.3304 112.329 22.6207 112.009 22.8232C111.84 22.92 111.663 22.9697 111.479 22.9697C111.102 22.9697 110.813 22.8079 110.611 22.4844C110.515 22.3138 110.467 22.1367 110.467 21.9508Z" fill="#FBF9F7"/>
<path d="M122.038 24.2804C122.038 23.948 122.182 23.7022 122.471 23.5392C122.607 23.4755 122.743 23.4386 122.88 23.4309H123.338C123.676 23.4309 123.924 23.5812 124.084 23.8792C124.148 24.0092 124.181 24.1429 124.181 24.2804V34.8846C124.181 35.2896 124.008 35.6004 123.663 35.8194C123.487 35.9162 123.297 35.9697 123.097 35.9773C122.696 35.9773 122.39 35.8028 122.182 35.4564C122.077 35.2781 122.026 35.0871 122.026 34.8846V32.0457C122.026 31.9565 121.982 31.9082 121.894 31.8992C121.844 31.9082 121.81 31.9247 121.784 31.9489C121.102 32.6443 120.236 33.0124 119.185 33.0531C119.12 33.0621 119.06 33.0659 119.004 33.0659C117.823 33.0659 116.804 32.6774 115.946 31.9005C114.935 30.9211 114.416 29.6678 114.392 28.1395C114.392 26.6506 114.886 25.4382 115.873 24.4995C116.692 23.7226 117.651 23.3061 118.75 23.2501C118.823 23.2411 118.896 23.2373 118.967 23.2373C120.14 23.2449 121.082 23.6258 121.797 24.3772C121.868 24.4498 121.937 24.4498 122.002 24.3772C122.025 24.3441 122.038 24.3123 122.038 24.2804ZM116.523 28.1739C116.523 29.0718 116.84 29.8041 117.474 30.3709C118.021 30.8549 118.661 31.0905 119.4 31.0739C120.219 31.0574 120.9 30.7224 121.447 30.0678C121.889 29.5176 122.113 28.8948 122.122 28.1981C122.122 27.2925 121.812 26.5488 121.195 25.9654C120.672 25.4891 120.055 25.2459 119.34 25.2382C118.473 25.2382 117.763 25.5655 117.209 26.2214C116.751 26.7793 116.523 27.4314 116.523 28.1739Z" fill="#FBF9F7"/>
<path d="M133.052 32.8706C132.876 32.8706 132.764 32.7904 132.714 32.6273C132.699 32.5879 132.69 32.5471 132.69 32.5063V32.1306C132.69 32.0504 132.651 32.0096 132.57 32.0096C132.53 32.0007 132.494 32.0134 132.462 32.0465C131.819 32.7253 130.981 33.0692 129.945 33.0769C128.516 33.0769 127.485 32.5395 126.851 31.4633C126.458 30.7831 126.262 29.9463 126.262 28.9516V24.3411C126.262 23.9285 126.438 23.6126 126.791 23.3936C126.968 23.2891 127.16 23.233 127.369 23.2241H127.393C127.811 23.2241 128.128 23.4024 128.345 23.7578C128.449 23.9437 128.5 24.1386 128.5 24.3411V28.7211C128.5 30.0559 128.978 30.8404 129.933 31.0747C130.125 31.1231 130.33 31.1473 130.547 31.1473C131.358 31.1473 131.951 30.7958 132.328 30.0915C132.562 29.6636 132.679 29.1414 132.679 28.5262V24.3411C132.679 23.9285 132.851 23.6126 133.196 23.3936C133.38 23.2891 133.573 23.233 133.774 23.2241C134.19 23.2241 134.509 23.4024 134.725 23.7578C134.83 23.9437 134.881 24.1386 134.881 24.3411V31.0264C134.881 31.6326 134.644 32.1217 134.171 32.4949C133.834 32.7458 133.462 32.8706 133.052 32.8706Z" fill="#FBF9F7"/>
<path d="M136.931 28.0043C136.963 26.6861 137.429 25.5614 138.328 24.6304C139.202 23.7248 140.274 23.2307 141.543 23.1504C141.718 23.1415 141.896 23.1377 142.073 23.1377C143.437 23.195 144.556 23.6917 145.431 24.6304C146.291 25.5614 146.72 26.7013 146.72 28.0526V28.1494C146.72 28.4563 146.584 28.6754 146.311 28.8041C146.207 28.8538 146.102 28.8767 145.998 28.8767H139.328C139.199 28.8767 139.123 28.9429 139.099 29.0715C139.091 29.1199 139.095 29.1607 139.111 29.1925C139.399 30.0662 139.962 30.6521 140.796 30.9527C141.15 31.0737 141.527 31.1335 141.929 31.1335C142.851 31.1259 143.586 30.7973 144.132 30.1503C144.373 29.851 144.69 29.7427 145.083 29.823C145.203 29.8472 145.308 29.8879 145.397 29.9439C145.742 30.1388 145.91 30.4331 145.902 30.8304C145.893 31.0966 145.809 31.3284 145.649 31.522C144.709 32.5485 143.47 33.0669 141.929 33.0745C140.942 33.0745 140.06 32.8478 139.286 32.3944C138.51 31.9422 137.919 31.3284 137.51 30.5566C137.1 29.786 136.908 28.934 136.931 28.0043ZM139.483 27.0337H144.179C144.317 27.0337 144.396 26.9688 144.421 26.8388C144.421 26.7981 144.416 26.7586 144.408 26.7179C144.054 25.755 143.341 25.2176 142.266 25.1029C142.129 25.0876 141.994 25.0788 141.856 25.0788C140.917 25.0788 140.171 25.4315 139.617 26.1346C139.479 26.3129 139.364 26.5039 139.267 26.7051C139.203 26.8351 139.235 26.9356 139.364 27.0082C139.404 27.0261 139.444 27.0337 139.483 27.0337Z" fill="#FBF9F7"/>
<path d="M43.5422 46.4122C43.5422 44.875 44.0478 43.6408 45.059 42.7111C45.9582 41.9189 46.9975 41.5139 48.1781 41.4973C49.2849 41.5062 50.2006 41.8539 50.9228 42.5417C50.9954 42.6143 51.0629 42.6092 51.1279 42.5289C51.1521 42.4971 51.1635 42.469 51.1635 42.4448V40.2848C51.1635 39.8798 51.3367 39.5728 51.6819 39.3627C51.8576 39.257 52.0461 39.2061 52.2474 39.2061H52.2601C52.6613 39.2061 52.9695 39.3754 53.1873 39.7142C53.2828 39.9002 53.3351 40.0913 53.3427 40.2861V50.0293C53.3427 50.433 53.1708 50.7451 52.8256 50.9629C52.6486 51.0686 52.4601 51.1208 52.2588 51.1208C51.8576 51.1208 51.5533 50.9463 51.3444 50.5986C51.24 50.4216 51.1877 50.2305 51.1877 50.028C51.1877 49.9873 51.1673 49.9707 51.1279 49.9796C51.1113 49.9872 51.0998 49.9961 51.0909 50.0038C50.4656 50.7476 49.6339 51.1768 48.5985 51.2901C48.4456 51.3067 48.294 51.3144 48.1412 51.3144C47.0408 51.3144 46.0627 50.9463 45.203 50.2102C44.1917 49.3441 43.6415 48.2003 43.5536 46.7764C43.546 46.6542 43.5422 46.5332 43.5422 46.4122ZM51.296 46.4721C51.3202 45.5742 51.026 44.8303 50.4172 44.2394C49.8784 43.7376 49.2365 43.4866 48.4902 43.4866C47.6228 43.4866 46.9122 43.814 46.3582 44.4699C45.9009 45.0125 45.6729 45.6518 45.6729 46.388C45.6729 47.2846 45.985 48.0208 46.6116 48.5964C47.1491 49.0728 47.7833 49.3122 48.5144 49.3122C49.332 49.3122 50.0198 48.9875 50.5726 48.3405C51.0311 47.7992 51.2718 47.1764 51.296 46.4721Z" fill="#FBF9F7"/>
<path d="M55.3994 46.2417C55.4326 44.9235 55.8974 43.7989 56.7966 42.8691C57.6716 41.9623 58.7427 41.4695 60.0112 41.388C60.1883 41.3803 60.3653 41.3765 60.541 41.3765C61.9064 41.4325 63.0259 41.9305 63.9009 42.8691C64.7593 43.7989 65.1898 44.9388 65.1898 46.2901V46.3869C65.1898 46.6951 65.0522 46.9129 64.7797 47.0429C64.6752 47.0913 64.5708 47.1155 64.4676 47.1155H57.7964C57.6678 47.1155 57.5913 47.1804 57.5671 47.309C57.5595 47.3587 57.5633 47.3981 57.5799 47.43C57.8677 48.305 58.4307 48.8908 59.2649 49.1901C59.619 49.3111 59.9959 49.3723 60.3971 49.3723C61.3192 49.3634 62.0541 49.0361 62.6005 48.3891C62.8412 48.0898 63.1584 47.9802 63.5519 48.0604C63.6716 48.0859 63.7761 48.1267 63.8639 48.1827C64.2104 48.3763 64.3785 48.6718 64.3696 49.0679C64.3619 49.3353 64.2779 49.5659 64.1161 49.7595C63.1774 50.7873 61.9382 51.3043 60.3971 51.3133C59.4088 51.3133 58.5287 51.0866 57.7544 50.6332C56.9787 50.1797 56.3878 49.5672 55.9789 48.7941C55.5688 48.0235 55.3752 47.1727 55.3994 46.2417ZM57.9518 45.2712H62.6476C62.7839 45.2712 62.8642 45.2063 62.8883 45.0776C62.8883 45.0369 62.8845 44.9961 62.8769 44.9553C62.5228 43.9925 61.8083 43.4563 60.7334 43.3417C60.5971 43.3251 60.4608 43.3174 60.3245 43.3174C59.3859 43.3174 58.6396 43.669 58.0855 44.3733C57.9492 44.5504 57.8321 44.7414 57.7365 44.9439C57.6716 45.0725 57.7034 45.1744 57.8321 45.247C57.8716 45.2636 57.9123 45.2712 57.9518 45.2712Z" fill="#FBF9F7"/>
<path d="M71.9432 39.1909C72.3291 39.1909 72.6182 39.3565 72.8105 39.6889C72.9073 39.8583 72.9557 40.0328 72.9557 40.2098V50.2944C72.9557 50.6816 72.7914 50.9732 72.4615 51.168C72.3011 51.2648 72.1291 51.3133 71.9444 51.3133C71.5674 51.3133 71.2783 51.1477 71.0771 50.8165C70.9892 50.6535 70.9446 50.4803 70.9446 50.2944V40.2111C70.9446 39.8227 71.1089 39.531 71.4375 39.3374C71.5993 39.2482 71.7674 39.1998 71.9432 39.1909Z" fill="#FBF9F7"/>
<path d="M75.1313 42.2497C75.0906 41.1493 75.0588 40.2755 75.0346 39.6285C75.0269 39.3216 75.1466 39.1713 75.3963 39.179L76.191 39.1917C76.3426 39.2083 76.4788 39.2885 76.5998 39.435C76.7119 39.5891 76.7603 39.7547 76.7451 39.9317L76.7323 39.9445V39.9559V39.9686V39.9814V39.9928V40.0056V40.017V40.0297V40.0412L76.7208 40.054V40.0667V40.0782V40.0896V40.1023V40.1138V40.1266V40.1393V40.1508L76.7081 40.1635V40.1762V40.1877V40.2004V40.2119V40.2246V40.2361V40.2488V40.2615V40.273L76.6966 40.2858V40.2972V40.31V40.3227V40.3341V40.3469V40.3596V40.3711V40.3838L76.6839 40.3953V40.408V40.4207V40.4322V40.445V40.4564V40.4692V40.4806V40.4933L76.6724 40.5061V40.5175V40.5303V40.543V40.5545V40.5672V40.5787V40.5914V40.6042L76.6597 40.6156V40.6284V40.6398V40.6525V40.6641V40.6767V40.6895V40.701V40.7137L76.6482 40.7264V40.7379V40.7506V40.7621V40.7748V40.7876V40.799V40.8117V40.8233V40.8359L76.6355 40.8487V40.8602V40.8729V40.8844V40.8971V40.9099V40.9213V40.934V40.9455L76.6228 40.9582V40.971C76.5349 41.7708 76.4788 42.298 76.4546 42.5477C76.4304 42.7578 76.3311 42.875 76.1541 42.9005C76.1299 42.9081 76.1095 42.9119 76.0942 42.9119L75.6968 42.9005C75.5529 42.8916 75.4243 42.8279 75.3122 42.7056C75.2065 42.5604 75.1466 42.4115 75.1313 42.2497Z" fill="#FBF9F7"/>
<path d="M79.0827 39.1792H84.6204C85.0216 39.1792 85.3273 39.3485 85.5362 39.6886C85.6406 39.8669 85.6928 40.0567 85.6928 40.2592C85.6928 40.6642 85.5247 40.9711 85.1872 41.1813C85.0102 41.287 84.8217 41.3392 84.6204 41.3392H81.2734C81.0568 41.3392 80.9078 41.4398 80.8276 41.6423C80.8034 41.7073 80.7919 41.7672 80.7919 41.8245V43.656C80.7919 43.8751 80.8963 44.0253 81.1052 44.1055C81.16 44.1221 81.2173 44.1297 81.2734 44.1297H84.6204C85.0216 44.1297 85.326 44.2991 85.5349 44.6392C85.6393 44.8175 85.6916 45.0085 85.6916 45.2098C85.6916 45.6135 85.5234 45.9217 85.1859 46.1319C85.0102 46.2363 84.8204 46.2898 84.6204 46.2898H81.2734C81.0556 46.2898 80.9078 46.3943 80.8276 46.6057C80.8034 46.6617 80.7906 46.719 80.7906 46.7751V48.6677C80.7906 48.8855 80.8951 49.0357 81.1039 49.1172C81.16 49.1414 81.216 49.1529 81.2721 49.1529H84.6191C85.0203 49.1529 85.326 49.3236 85.5336 49.6636C85.6381 49.8407 85.6916 50.0304 85.6916 50.2342C85.6916 50.6303 85.5234 50.9373 85.1859 51.1551C85.0089 51.2532 84.8204 51.3054 84.6191 51.3143H79.0815C78.8484 51.3143 78.6841 51.2047 78.5873 50.9856C78.5631 50.913 78.5516 50.8443 78.5516 50.7793V39.7129C78.5516 39.4785 78.6599 39.3129 78.8764 39.2161C78.9413 39.1919 79.0101 39.1792 79.0827 39.1792Z" fill="#FBF9F7"/>
<path d="M88.1002 48.4371L88.3053 48.2677C88.6339 48.0092 88.9867 47.9646 89.365 48.134C89.5012 48.1914 89.6171 48.2678 89.7139 48.3658C90.2756 48.9237 90.9417 49.2026 91.7122 49.2026C92.4509 49.2026 92.9731 48.939 93.2775 48.413C93.4227 48.171 93.4953 47.9073 93.4953 47.6246C93.4953 47.1151 93.1412 46.7063 92.4356 46.3994C92.1936 46.2937 91.7326 46.137 91.05 45.9256C90.0234 45.5855 89.2962 45.2581 88.8708 44.9423C88.1168 44.3768 87.736 43.5833 87.7271 42.5644C87.7271 41.5863 88.1079 40.7725 88.8708 40.1255C89.6171 39.495 90.5328 39.1792 91.6167 39.1792C92.7158 39.1881 93.6634 39.4505 94.4582 39.9688C94.7957 40.1866 94.951 40.5025 94.9281 40.9151C94.8963 41.2386 94.7549 41.4971 94.5066 41.692C94.178 41.9429 93.8239 41.9824 93.4469 41.813C93.359 41.7646 93.2813 41.7162 93.2177 41.6678C92.7846 41.3189 92.2548 41.1418 91.6282 41.1329C90.8576 41.1329 90.352 41.3966 90.1125 41.9213C90.0399 42.0907 89.9992 42.2779 89.9916 42.4804C89.9916 42.9415 90.2921 43.3134 90.8946 43.5961C91.0869 43.6929 91.5836 43.875 92.3872 44.1425C93.5195 44.5144 94.3257 44.9155 94.8071 45.3435C95.4503 45.9344 95.7713 46.6987 95.7713 47.6373C95.7713 48.6167 95.4261 49.4535 94.7358 50.1489C93.9653 50.9181 92.9617 51.3054 91.7263 51.3143C90.3367 51.3054 89.1293 50.9016 88.1015 50.1005C87.7806 49.842 87.6519 49.5108 87.7169 49.1058C87.7627 48.8307 87.8914 48.6078 88.1002 48.4371Z" fill="#FBF9F7"/>
<path d="M99.1381 39.1792C99.5546 39.1792 99.8717 39.3575 100.09 39.7129C100.202 39.8988 100.258 40.0975 100.258 40.3076V50.1846C100.258 50.5972 100.084 50.9169 99.7393 51.1436C99.5469 51.2493 99.347 51.3053 99.1381 51.313C98.728 51.313 98.4109 51.1347 98.1867 50.7793C98.0746 50.5934 98.0186 50.3947 98.0186 50.1846V40.3089C98.0186 39.8962 98.1944 39.5765 98.5484 39.3498C98.7331 39.2365 98.9292 39.1792 99.1381 39.1792Z" fill="#FBF9F7"/>
</svg>
